# xmcd CD database file
#
# Track frame offsets:
#	150
#	19050
#	57600
#	109950
#	116550
#	136500
#
# Disc length: 2794 seconds
#
# Revision: 0
# Processed by: cddbd v1.5.2PL0 Copyright (c) Steve Scherf et al.
# Submitted via: CDex 1.51
#
DISCID=4d0ae806
DTITLE=Arturo Sandoval - LIVE AT THE HOTEL NACIONAL, HAVANA 1986
DYEAR=2007
DGENRE=Jazz
TTITLE0=NUESTRO BLUES
TTITLE1=LOS ELEFANTES
TTITLE2=MY FUNNY VALENTINE
TTITLE3=BADINERIE
TTITLE4=CONCERTO IN F MAJOR, ALLEGRO VIVACE
TTITLE5=A NIGHT IN TUNISIA
EXTD=YEAR: 2007
EXTT0=
EXTT1=
EXTT2=
EXTT3=
EXTT4=
EXTT5=
PLAYORDER=
